# xmcd
#
# Track frame offsets:
#	150
#	14016
#	29244
#	45072
#	65269
#	81193
#	96020
#	113343
#	128983
#	141825
#
# Disc length: 2072 seconds
# Revision: 0
# Processed by: cddbd v1.5.2PL0 Copyright (c) Steve Scherf et al.
# Submitted via: dBpowerAMP V12.0
#
DISCID=7d08160a
DTITLE=Martin Harley - Mojo Fix
DYEAR=2012
DGENRE=Blues
TTITLE0=Mojo Fix
TTITLE1=Outlaw
TTITLE2=Cardboard King
TTITLE3=Ball and Chain
TTITLE4=Treading Water
TTITLE5=Wrecking Ball
TTITLE6=Tightrope
TTITLE7=Rum Shack
TTITLE8=Working for the Man
TTITLE9=Mean Old City
EXTD=
EXTT0=
EXTT1=
EXTT2=
EXTT3=
EXTT4=
EXTT5=
EXTT6=
EXTT7=
EXTT8=
EXTT9=
PLAYORDER=
